<?xml version="1.0" encoding="UTF-8"?> <svg xmlns="http://www.w3.org/2000/svg" id="a" viewBox="0 0 1680 900"> <defs> <style>.b{fill:#fff;}.c{fill:red;}</style> </defs> <rect class="b" width="1680" height="900"></rect> <g> <g> <path class="c" d="M465.97,545.92l8.26,1.55-28.9,92.9H180.55v-9.29h12.9c14.45,0,24.77-4.64,30.97-13.94,3.44-6.19,5.16-18.75,5.16-37.68v-220.39c0-21.33-2.24-34.75-6.71-40.26-6.89-7.23-16.69-10.84-29.42-10.84h-12.9v-9.29h154.84v9.29h-2.58c-17.21,0-29.08,1.55-35.61,4.64-6.54,3.1-11.7,7.92-15.48,14.45-2.41,7.23-3.61,19.79-3.61,37.68v214.71c0,13.08,1.03,21.85,3.1,26.32,2.06,4.48,5.5,7.92,10.32,10.32,4.47,1.73,17.55,2.58,39.23,2.58h24.77c26.15,0,44.21-1.63,54.19-4.9,9.98-3.27,19.52-9.98,28.64-20.13,9.11-10.14,18.32-26.06,27.61-47.74Z"></path> <path class="c" d="M674.48,290.95c43.69,0,81.98,16.95,114.84,50.84,32.85,33.89,49.29,75.79,49.29,125.68s-16.44,93.77-49.29,128.51c-32.86,34.76-72.52,52.13-118.97,52.13s-85.42-16.77-117.93-50.32c-32.52-33.55-48.77-76.64-48.77-129.29s18.58-98.06,55.74-133.16c32.34-29.59,70.71-44.39,115.1-44.39Zm-5.16,18.58c-29.94,0-54.37,11.19-73.29,33.55-23.06,28.22-34.58,69.68-34.58,124.39s11.87,98.58,35.61,128.51c18.58,22.71,42.84,34.06,72.77,34.06s57.2-12.47,78.71-37.42c21.5-24.94,32.26-64.43,32.26-118.45,0-58.84-11.53-102.36-34.58-130.58-18.58-22.71-44.22-34.06-76.9-34.06Z"></path> <path class="c" d="M1224.67,298.69v9.29c-11.7,2.06-20.82,5.85-27.36,11.35-9.29,8.26-17.21,20.99-23.74,38.19l-119.22,290.58h-9.3l-128-294.71c-5.85-13.76-10.67-23.14-14.45-28.13-3.79-4.98-7.92-8.52-12.39-10.58-4.48-2.07-8.95-3.61-13.42-4.65l-13.94-2.06v-9.29h139.35v9.29c-14.8,0-25.12,2.76-30.97,8.27-4.48,3.79-6.71,8.61-6.71,14.47,0,8.61,3.9,21.88,11.71,39.79l86.69,200.92,80.53-198.99c8.01-20.1,12.03-33.6,12.03-40.54,0-4.5-2.07-8.83-6.19-12.99-4.13-4.16-12.73-7.8-25.81-10.92h-4.13v-9.29h105.29Z"></path> <path class="c" d="M1338.72,317.27v135.23h74.84c19.27,0,32.34-2.92,39.22-8.77,9.63-8.6,14.45-22.19,14.45-40.77h9.8v118.71h-9.8c-2.07-17.89-4.48-28.9-7.23-33.03-2.06-4.13-6.89-8.43-14.45-12.9-6.89-3.1-17.55-4.64-32-4.64h-74.84v112.51c0,15.83,.6,25.29,1.81,28.39,1.2,3.1,3.69,5.34,7.48,6.71,3.1,2.06,9.46,3.1,19.1,3.1h57.81c18.92,0,32.77-1.29,41.55-3.87,8.77-2.58,17.55-8.17,26.32-16.77,8.77-8.6,19.18-24.08,31.22-46.45h10.32l-29.42,85.68h-263.23v-9.29h21.91c3.48-.68,7.82-2.41,13.04-5.17,5.21-2.06,8.86-5.69,10.96-10.85,1.04-4.13,1.73-7.06,2.08-8.78,.35-1.73,.53-4.83,.53-9.31v-238.83c0-21.71-2.07-35.15-6.19-40.32-6.54-6.55-16.69-9.82-30.45-9.82h-11.87v-9.29h263.23l3.61,74.84h-9.81c-3.1-18.58-7.06-30.97-11.87-37.16-4.13-6.19-9.89-10.92-17.29-14.19-7.4-3.27-19.7-4.9-36.9-4.9h-93.93Z"></path> </g> <g> <path d="M314.18,286.28c-4.1-4.27-6.16-10.11-6.16-17.52,0-2.96,1.48-8.8,4.43-17.52,3.94-11.84,5.99-18.01,6.15-18.5l7.39-22.7,7.63-25.16,.99-5.92c0-.98-.33-2.05-.99-3.21l-1.23-1.48h-1.23c-2.3,0-5.09,2.62-8.37,7.84l-10.83,18.14-13.54,27.21-1.48,2.45-.98,.49-2.22-1.72-3.45-3.69c-.99-.99-1.48-2.05-1.48-3.2,.16-.49,.33-1.02,.49-1.6,.16-.57,.49-1.35,.99-2.34l4.68-8.62c2.95-6.07,6.81-12.15,11.57-18.22,11.16-15.27,21.09-22.9,29.79-22.9,6.56,0,9.85,4.84,9.85,14.53,0,2.63-.82,6.65-2.46,12.06-3.78,12.48-7.55,24.87-11.33,37.18-2.14,6.57-3.69,11.66-4.68,15.27-3.29,11.33-4.92,18.55-4.92,21.67,0,3.61,.65,6.4,1.97,8.37,2.13,3.29,5.99,4.92,11.57,4.92,6.89,0,16.66-6.99,29.3-20.99,8.86-9.71,16.25-19.17,22.16-28.4,3.12-4.77,6.24-9.59,9.36-14.44,3.12-4.85,6.56-12.55,10.34-23.09,1.8-4.94,4.59-13.67,8.37-26.18,2.79-9.38,5.58-18.85,8.37-28.4,2.3-7.57,5.25-16.95,8.86-28.15,.49-1.48,1.07-2.47,1.72-2.96h9.6c1.97,0,2.96,.99,2.96,2.95l-.25,1.48-12.06,35.95-16.5,53.92c-1.64,5.42-4.76,14.37-9.36,26.84-5.42,14.77-9.19,25.61-11.33,32.5-4.27,13.79-7.63,26.84-10.09,39.15-.99,4.76,1.23,12.72,6.65,23.88,6.56,13.46,14.61,20.19,24.13,20.19l-21.91,8.62c-1.97-1.81-3.53-3.29-4.68-4.43-3.45-3.45-6.16-6.57-8.12-9.36-3.12-4.43-5.38-9.11-6.77-14.03-1.4-4.92-2.09-10.18-2.09-15.76,0-8.86,2.05-19.62,6.15-32.25,3.12-9.36,6.32-18.71,9.6-28.07-13.13,15.43-25.36,26.68-36.69,33.73-9.03,5.58-16.99,8.37-23.88,8.37-3.94,0-7.47-.9-10.59-2.71-1.32-.66-3.12-2.06-5.42-4.2Z"></path> <path d="M528.39,228.92v2.46l-.54,1.96-13.06,47.78-.5,2.38c-.33,1.06-.75,1.76-1.24,2.12l-1.98,.79-7.18,1.85h-2.72l-.25-1.48,.49-2.47,9.64-31.52-7.66,11.82-9.39,12.8c-5.27,7.22-10.13,10.84-14.58,10.84-6.26,0-9.39-3.69-9.39-11.08,0-5.09,1.39-12.31,4.19-21.67l2.96-8.86-5.42,9.36c-3.45,6.07-6.65,11.08-9.6,15.02l-6.89,9.11c-4.43,5.42-8.54,8.13-12.31,8.13-2.79,0-5.25-1.31-7.39-3.94-2.14-2.62-3.2-5.5-3.2-8.62l.74-6.89,3.45-12.31,4.43-14.03,.98-3.94c0-1.48-.74-2.22-2.21-2.22-1.15,0-2.55,.58-4.19,1.72l-5.91,4.68-4.19,3.94-2.46,2.46-1.48,.99-1.23-.99-.98-1.23c0-1.48,2.79-4.68,8.37-9.6,5.58-4.43,9.44-7.22,11.57-8.37,2.13-1.15,4.27-1.72,6.4-1.72,5.58,0,8.37,2.38,8.37,7.14,0,1.48-.41,3.69-1.23,6.65l-1.48,5.91c-.99,3.45-1.89,6.89-2.71,10.34-1.48,4.92-2.95,9.44-4.43,13.54l-1.72,8.12c0,1.64,.9,2.63,2.71,2.96,1.8,0,4.43-2.22,7.88-6.65l7.39-10.83,8.62-13.79,6.9-11.82,5.42-9.6,1.72-1.97h9.85c1.31-.16,2.13,.49,2.46,1.97l-.49,2.22-3.94,9.6-6.4,16.74-4.92,14.03-1.23,6.16c0,2.63,1.23,3.94,3.69,3.94s4.92-1.81,7.38-5.44l7.14-9.89,8.86-14.35,6.89-12.36,4.93-10.39,1.97-2.23h8.37l.74,.74Z"></path> <path d="M555.47,251.82c12.15-15.43,21.09-23.14,26.84-23.14,7.39,0,11.08,4.68,11.08,14.03,0,4.43-.66,8.29-1.97,11.57l-4.19,10.34-4.92,10.34-1.48,2.96-.74,2.46v1.48c.49,1.32,1.72,1.97,3.69,1.97,3.45,0,8.86-3.69,16.25-11.08l3.69-3.69,1.48-.74c.99,.66,1.48,1.23,1.48,1.72-.49,1.32-.9,2.14-1.23,2.46l-5.42,5.66c-7.23,7.06-14.12,10.59-20.68,10.59s-10.1-3.28-10.1-9.85c0-3.77,1.31-8.86,3.94-15.27l6.65-16,2.46-5.91,.99-4.19c0-2.46-1.15-3.69-3.45-3.69-1.32,0-2.63,.41-3.94,1.23l-3.69,2.95c-1.48,1.48-3.24,3.41-5.29,5.79-2.05,2.38-3.32,3.9-3.82,4.55l-11.33,15.51-7.14,13.54-3.69,7.14-1.97,2.22-3.45,.25h-5.42c-.99,0-1.48-.49-1.48-1.48l.56-3.17,1.12-3.91,15.62-56.01,22.36-80.45,3.4-12.33,1.06-2.69c.16-.85,.82-1.86,1.97-3.05l2.46-1.52,8.11-3.05,3.44-1.02,.94,.97,.29,.75-1.05,4.41-41.3,138.15,7.88-10.83Z"></path> <path d="M638.37,255.49l-3.9,11.09-2.68,6.9-.97,5.67c0,3.12,1.48,4.68,4.43,4.68,3.77,0,8.94-2.64,15.51-7.91,4.43-4.12,8.12-8.74,11.08-13.85,.82-1.15,2.13-3.63,3.94-7.42,.82-1.65,1.72-3.59,2.71-5.81,.99-2.22,1.48-4.49,1.48-6.8,0-1.98-.7-3.92-2.09-5.81-1.4-1.89-3-2.84-4.8-2.84,.65-.82,2.3-2.47,4.93-4.95,2.13,0,3.85,.33,5.17,.99,1.31,.66,2.95,1.98,4.92,3.95,3.12,3.13,4.68,7.25,4.68,12.36,0,10.88-5.7,20.77-17.11,29.67-11.41,8.9-22.2,13.35-32.38,13.35-8.04,0-12.06-3.61-12.06-10.83,0-2.3,.33-4.43,.99-6.4l1.97-7.63,16.22-56.88,23.16-79.03,.98-3.44c.49-1.2,1.23-1.97,2.22-2.31l2.46-1.03,6.9-2.05,2.22-.77c1.15,.52,1.8,1.46,1.97,2.83l-.6,2.31-1.54,4.42-19.19,61.8-16.23,52.45-1.7,5.67-2.68,7.64Zm8.7-75.07h-4.18l-.74-1.97,1.23-4.52,.99-2.13h1.23l4.5-.05,16.32,.05h26.94l.74,.8v1.33l-.99,4.52-.74,1.97h-45.3Z"></path> </g> <g> <path d="M606.54,721.69l8.62-12.06c6.24-8.21,11.74-12.31,16.5-12.31,2.63,0,5.09,1.07,7.39,3.22,2.3,2.15,3.45,4.79,3.45,7.92,0,3.46-.6,6.92-1.8,10.39l-3.85,9.65-6.42,15.34v2.47c0,2.15,.9,3.22,2.71,3.22,1.15,0,2.54-.58,4.19-1.75l5.91-4.76,4.43-4.01,2.46-2.5,1.23-1,1.48,.74,.49,.74,.25,.74c0,1.64-3.78,5.66-11.33,12.06-6.24,5.09-11,7.63-14.28,7.63-6.08,0-9.11-2.62-9.11-7.88,0-2.95,.82-6.56,2.46-10.83l3.69-10.59,3.69-10.59,2.71-7.14,.74-3.94c0-2.46-1.15-3.69-3.45-3.69-2.13,0-4.6,1.72-7.39,5.17l-5.91,7.88-9.85,14.28c-1.97,2.95-3.37,5.17-4.19,6.65-1.81,3.45-3.12,5.99-3.94,7.63-1.64,3.78-3.36,6.81-5.17,9.11-.49,1.15-1.07,1.81-1.72,1.97l-2.46,.25h-5.91l-.99-.74,.49-2.46,.49-1.97,12.78-46.3,.74-2.22,.98-1.72,2.2-.89,7.1-2.07h2.45l.25,1.45-.46,2.47-9.31,31.28,7.64-10.83Z"></path> <path d="M684.28,698.06l2.42-.74c1.3,.33,1.95,1.07,1.95,2.22l-.49,1.93-11.93,36.73-1.48,5.03-.24,2.77c.33,2.52,1.23,3.69,2.71,3.52l.99-.25,2.71-1.97,5.91-5.66,4.43-4.92,2.46-2.71,1.23-.99,1.48,.74,.74,1.23-.74,1.72-7.63,8.62-9.36,8.37c-2.96,2.46-6.15,3.69-9.6,3.69-5.09,0-7.88-2.78-8.37-8.35,0-2.45,.52-5.4,1.55-8.84l3.37-11.54,7.5-24.67,1.45-2.72,2.9-1.73,6.06-1.49Z"></path> <path d="M748.85,725.14l-5.17,8.12c-9.69,16.09-18.22,24.13-25.61,24.13-2.79,0-5.17-.99-7.14-2.98-1.48-1.99-2.21-4.39-2.21-7.2,0-2.15,.08-3.93,.25-5.34,.16-1.41,.65-3.85,1.48-7.33l3.69-15.14,4.93-15.39,.99-3.47c.49-.66,1.48-1.24,2.95-1.74l5.66-1.49h2.95l.49,.99-.25,1.24-1.72,4.72-3.94,13.17-7.14,23.6c-.33,.83-.62,1.99-.86,3.48-.25,1.49-.37,2.9-.37,4.22-.33,2.32,.74,3.48,3.2,3.48h1.97c.49-.33,1.27-.87,2.34-1.62,1.07-.75,2.01-1.62,2.83-2.61l6.15-7.46,8.37-12.68,9.6-17.4,4.19-7.95,1.23-1.99,1.48-.99,1.97-.25h5.42l2.22,.25,.74,.74,.25,1.24-.26,1.73-1.28,3.71-3.58,10.64-5.12,16.33-2.31,7.67v3.46c0,2.97,1.15,4.46,3.45,4.46,.99,0,2.21-.5,3.69-1.51l5.66-4.78,4.68-4.02,2.22-1.26,.74,.25,.99,1.48-1.48,2.22-4.68,4.43-6.15,5.42c-4.43,3.78-8.37,5.66-11.82,5.66-5.58,0-8.37-3.28-8.37-9.85,0-2.62,.49-5.91,1.48-9.85l2.71-10.34,2.95-9.36-4.43,7.14Z"></path> <g> <path d="M579.95,578.64c-2.3,0-4.68,.74-7.14,2.21-8.7,5.91-15.92,14.52-21.67,25.83-1.64,3.12-3.2,6.39-4.68,9.84-.82,1.8-2.3,5.41-4.43,10.82l-9.6,29.27-7.14,21.64c-3.61,10.66-7.31,20.58-11.08,29.76-2.63,6.07-5.99,12.05-10.09,17.95l-3.94,4.67,10.09,3.96c9.19,3.3,16,5.53,20.44,6.69,.49,.17,2.42,.66,5.79,1.48,3.36,.83,6.36,1.49,8.99,1.98l7.88,1.24,2.21,.74-.74,2.48-5.17,7.19-1.97,1.98-.99,.5-1.97-.25-6.4-1.72c-7.39-1.8-14.77-4.02-22.16-6.65-2.63-.99-5.99-2.34-10.09-4.06-4.11-1.72-6.98-2.91-8.62-3.57l-5.91-2.71-4.43,3.69c-7.23,5.58-14.2,9.69-20.93,12.31-8.86,3.61-18.47,5.42-28.81,5.42-8.21,0-15.43-1.32-21.67-3.96-8.7-3.46-13.05-8.91-13.05-16.34,0-9.9,5.91-16.84,17.73-20.8,7.05-1.98,13.46-2.97,19.2-2.97,12.14,0,26.59,2.52,43.33,7.57l8.13,2.77,3.2-5.66c3.77-6.89,8.53-19.94,14.28-39.15,1.64-5.91,3.36-11.82,5.17-17.73,1.31-4.43,2.79-8.94,4.43-13.54,2.3-6.89,4.27-12.43,5.91-16.62,1.64-4.19,3.86-9.07,6.65-14.65,10.34-21.83,22.65-36.69,36.93-44.57,3.94-2.13,7.79-3.2,11.57-3.2,2.79,.99,4.19,2.38,4.19,4.19,0,1.32-1.15,1.97-3.45,1.97Zm-97.01,158.43l-7.88-2.5c-6.24-1.99-12.8-3.49-19.7-4.49-6.9-1-13.13-1.5-18.71-1.5-3.78,0-6.57,.17-8.37,.49-12.31,1.97-18.47,6.4-18.47,13.3,0,8.54,8.78,12.8,26.35,12.8,8.04,0,16.17-1.55,24.38-4.65,6.07-2.12,11.57-5.05,16.5-8.81l5.91-4.65Z"></path> <path d="M809.91,720.46c12.15-15.43,21.09-23.14,26.84-23.14,7.39,0,11.08,4.68,11.08,14.03,0,4.43-.66,8.29-1.97,11.57l-4.18,10.34-4.93,10.34-1.48,2.96-.74,2.46v1.48c.49,1.32,1.72,1.97,3.69,1.97,3.45,0,8.86-3.69,16.25-11.08l3.69-3.69,1.48-.74c.99,.66,1.48,1.23,1.48,1.72-.49,1.32-.9,2.14-1.23,2.46l-5.42,5.66c-7.22,7.06-14.12,10.59-20.68,10.59s-10.09-3.28-10.09-9.85c0-3.77,1.31-8.86,3.94-15.27l6.65-16,2.46-5.91,.99-4.19c0-2.46-1.15-3.69-3.45-3.69-1.32,0-2.63,.41-3.94,1.24l-3.69,2.96c-1.48,1.48-3.24,3.41-5.29,5.8-2.05,2.39-3.32,3.91-3.82,4.56l-11.33,15.54c-.99,1.81-4.76,10.94-11.33,27.39-7.72,19.24-15.35,38.48-22.9,57.73l-3.69,7.16-1.97,2.22h-8.86c-.99,0-1.48-.49-1.48-1.48l.49-3.21,.98-3.94,42.9-127.35,22.36-80.45,3.4-12.33,1.06-2.69c.16-.85,.82-1.86,1.97-3.05l2.46-1.52,8.11-3.05,3.44-1.02,.94,.97,.25,.75-1.01,4.41-41.3,138.15,7.88-10.83Z"></path> <path d="M932.82,588h2.19c1.14,.49,1.79,1.14,1.95,1.96l-.49,2.23-1.62,4.39-19.03,61.86-16.04,51.45-1.48,5.17c-.82,2.63-1.64,5.09-2.46,7.39-.17,.33-.41,.9-.74,1.72-.99,2.95-1.72,5.26-2.22,6.89-.49,1.64-1.07,3.04-1.72,4.19l-2.71,6.89-.99,5.66c0,3.12,1.48,4.68,4.43,4.68,3.77,0,8.94-2.62,15.51-7.88,4.43-4.1,8.12-8.7,11.08-13.79,.82-1.15,2.13-3.61,3.94-7.39,.82-1.64,1.72-3.57,2.71-5.79,.99-2.22,1.48-4.47,1.48-6.77,0-1.97-.7-3.9-2.09-5.79-1.4-1.89-3-2.83-4.8-2.83,.65-.82,2.3-2.46,4.92-4.92,2.13,0,3.86,.33,5.17,.99,1.31,.66,2.96,1.97,4.92,3.94,3.12,3.12,4.68,7.22,4.68,12.31,0,10.83-5.71,20.68-17.11,29.55-11.41,8.86-22.2,13.3-32.38,13.3-8.05,0-12.06-3.61-12.06-10.83,0-2.3,.33-4.43,.99-6.4l1.99-7.63,16.19-56.9,23.59-78.97-17.97-.05h-4.19l-.74-2,1.23-4.65,.99-1.96h32.87Z"></path> <path d="M972.58,724.13l-3.9,11.09-2.68,6.9-.97,5.67c0,3.12,1.48,4.68,4.43,4.68,3.77,0,8.94-2.64,15.51-7.91,4.43-4.12,8.12-8.74,11.08-13.85,.82-1.15,2.13-3.63,3.94-7.42,.82-1.65,1.72-3.59,2.71-5.81,.99-2.22,1.48-4.49,1.48-6.8,0-1.98-.7-3.92-2.09-5.81-1.4-1.89-3-2.84-4.8-2.84,.65-.82,2.3-2.47,4.92-4.95,2.13,0,3.86,.33,5.17,.99,1.31,.66,2.96,1.98,4.92,3.95,3.12,3.13,4.68,7.25,4.68,12.36,0,10.88-5.71,20.77-17.11,29.67-11.41,8.9-22.2,13.35-32.38,13.35-8.05,0-12.06-3.61-12.06-10.83,0-2.3,.33-4.43,.99-6.4l1.97-7.63,16.22-56.88,23.16-79.03,.99-3.44c.49-1.2,1.23-1.97,2.22-2.31l2.46-1.03,6.9-2.05,2.21-.77c1.15,.52,1.8,1.46,1.97,2.83l-.6,2.31-1.54,4.42-19.19,61.8-16.23,52.45-1.71,5.67-2.68,7.64Zm8.7-75.07h-4.18l-.74-1.97,1.23-4.52,.98-2.13h1.23l4.5-.05,16.32,.05h26.94l.74,.8v1.33l-.99,4.52-.74,1.97h-45.3Z"></path> </g> </g> </g> </svg> 